<?xml version="1.0" encoding="UTF-8" standalone="no"?>
<svg
   xmlns:dc="http://purl.org/dc/elements/1.1/"
   xmlns:cc="http://creativecommons.org/ns#"
   xmlns:rdf="http://www.w3.org/1999/02/22-rdf-syntax-ns#"
   xmlns:svg="http://www.w3.org/2000/svg"
   xmlns="http://www.w3.org/2000/svg"
   xmlns:sodipodi="http://sodipodi.sourceforge.net/DTD/sodipodi-0.dtd"
   xmlns:inkscape="http://www.inkscape.org/namespaces/inkscape"
   inkscape:version="1.0 (4035a4fb49, 2020-05-01)"
   sodipodi:docname="A00326.svg"
   viewBox="0 0 683.6782 141.12088"
   height="141.12088"
   width="683.67822"
   xml:space="preserve"
   id="svg2"
   version="1.1"><metadata
     id="metadata8"><rdf:RDF><cc:Work
         rdf:about=""><dc:format>image/svg+xml</dc:format><dc:type
           rdf:resource="http://purl.org/dc/dcmitype/StillImage" /><dc:title /></cc:Work></rdf:RDF></metadata><defs
     id="defs6" /><sodipodi:namedview
     inkscape:document-rotation="0"
     fit-margin-bottom="0"
     fit-margin-right="0"
     fit-margin-left="0"
     fit-margin-top="0"
     inkscape:current-layer="layer1"
     inkscape:window-maximized="1"
     inkscape:window-y="-8"
     inkscape:window-x="-8"
     inkscape:cy="50.292045"
     inkscape:cx="397.69087"
     inkscape:zoom="1.6163366"
     showgrid="false"
     id="namedview4"
     inkscape:window-height="869"
     inkscape:window-width="1920"
     inkscape:pageshadow="2"
     inkscape:pageopacity="0"
     guidetolerance="10"
     gridtolerance="10"
     objecttolerance="10"
     borderopacity="1"
     bordercolor="#666666"
     pagecolor="#ffffff" /><g
     sodipodi:insensitive="true"
     style="display:inline"
     transform="matrix(1.3333333,0,0,-1.3333333,-0.00222203,-18.877782)"
     inkscape:label="A00326"
     inkscape:groupmode="layer"
     id="g10"><g
       id="g14"
       transform="matrix(1,0,0,-1,0,-14.15667)"><path
         d="M 160.438,0.535 V 105.309"
         style="fill:none;stroke:#ffc1c1;stroke-width:1.06666696;stroke-linecap:square;stroke-linejoin:miter;stroke-miterlimit:10;stroke-dasharray:none;stroke-opacity:1"
         id="path16"
         inkscape:connector-curvature="0" /></g><g
       id="g18"
       transform="matrix(1,0,0,-1,0,-14.15667)"><path
         d="M 176.43,0.535 V 105.309"
         style="fill:none;stroke:#ffc1c1;stroke-width:1.06666696;stroke-linecap:square;stroke-linejoin:miter;stroke-miterlimit:10;stroke-dasharray:none;stroke-opacity:1"
         id="path20"
         inkscape:connector-curvature="0" /></g><g
       id="g22"
       transform="matrix(1,0,0,-1,0,-14.15667)"><path
         d="M 192.418,0.535 V 105.309"
         style="fill:none;stroke:#ffc1c1;stroke-width:1.06666696;stroke-linecap:square;stroke-linejoin:miter;stroke-miterlimit:10;stroke-dasharray:none;stroke-opacity:1"
         id="path24"
         inkscape:connector-curvature="0" /></g><g
       id="g26"
       transform="matrix(1,0,0,-1,0,-14.15667)"><path
         d="M 208.41,0.535 V 105.309"
         style="fill:none;stroke:#ffc1c1;stroke-width:1.06666696;stroke-linecap:square;stroke-linejoin:miter;stroke-miterlimit:10;stroke-dasharray:none;stroke-opacity:1"
         id="path28"
         inkscape:connector-curvature="0" /></g><g
       id="g30"
       transform="matrix(1,0,0,-1,0,-14.15667)"><path
         d="M 224.395,0.535 V 105.309"
         style="fill:none;stroke:#ffc1c1;stroke-width:1.06666696;stroke-linecap:square;stroke-linejoin:miter;stroke-miterlimit:10;stroke-dasharray:none;stroke-opacity:1"
         id="path32"
         inkscape:connector-curvature="0" /></g><g
       id="g34"
       transform="matrix(1,0,0,-1,0,-14.15667)"><path
         d="M 240.395,0.535 V 105.309"
         style="fill:none;stroke:#ffc1c1;stroke-width:1.06666696;stroke-linecap:square;stroke-linejoin:miter;stroke-miterlimit:10;stroke-dasharray:none;stroke-opacity:1"
         id="path36"
         inkscape:connector-curvature="0" /></g><g
       id="g38"
       transform="matrix(1,0,0,-1,0,-14.15667)"><path
         d="M 256.387,0.535 V 105.309"
         style="fill:none;stroke:#ffc1c1;stroke-width:1.06666696;stroke-linecap:square;stroke-linejoin:miter;stroke-miterlimit:10;stroke-dasharray:none;stroke-opacity:1"
         id="path40"
         inkscape:connector-curvature="0" /></g><g
       id="g42"
       transform="matrix(1,0,0,-1,0,-14.15667)"><path
         d="M 272.375,0.535 V 105.309"
         style="fill:none;stroke:#ffc1c1;stroke-width:1.06666696;stroke-linecap:square;stroke-linejoin:miter;stroke-miterlimit:10;stroke-dasharray:none;stroke-opacity:1"
         id="path44"
         inkscape:connector-curvature="0" /></g><g
       id="g46"
       transform="matrix(1,0,0,-1,0,-14.15667)"><path
         d="M 288.367,0.535 V 105.309"
         style="fill:none;stroke:#ffc1c1;stroke-width:1.06666696;stroke-linecap:square;stroke-linejoin:miter;stroke-miterlimit:10;stroke-dasharray:none;stroke-opacity:1"
         id="path48"
         inkscape:connector-curvature="0" /></g><g
       id="g50"
       transform="matrix(1,0,0,-1,0,-14.15667)"><path
         d="M 304.355,0.535 V 105.309"
         style="fill:none;stroke:#ffc1c1;stroke-width:1.06666696;stroke-linecap:square;stroke-linejoin:miter;stroke-miterlimit:10;stroke-dasharray:none;stroke-opacity:1"
         id="path52"
         inkscape:connector-curvature="0" /></g><g
       id="g54"
       transform="matrix(1,0,0,-1,0,-14.15667)"><path
         d="M 320.34,0.535 V 105.309"
         style="fill:none;stroke:#ffc1c1;stroke-width:1.06666696;stroke-linecap:square;stroke-linejoin:miter;stroke-miterlimit:10;stroke-dasharray:none;stroke-opacity:1"
         id="path56"
         inkscape:connector-curvature="0" /></g><g
       id="g58"
       transform="matrix(1,0,0,-1,0,-14.15667)"><path
         d="M 336.332,0.535 V 105.309"
         style="fill:none;stroke:#ffc1c1;stroke-width:1.06666696;stroke-linecap:square;stroke-linejoin:miter;stroke-miterlimit:10;stroke-dasharray:none;stroke-opacity:1"
         id="path60"
         inkscape:connector-curvature="0" /></g><g
       id="g62"
       transform="matrix(1,0,0,-1,0,-14.15667)"><path
         d="M 352.32,0.535 V 105.309"
         style="fill:none;stroke:#ffc1c1;stroke-width:1.06666696;stroke-linecap:square;stroke-linejoin:miter;stroke-miterlimit:10;stroke-dasharray:none;stroke-opacity:1"
         id="path64"
         inkscape:connector-curvature="0" /></g><g
       id="g66"
       transform="matrix(1,0,0,-1,0,-14.15667)"><path
         d="M 368.312,0.535 V 105.309"
         style="fill:none;stroke:#ffc1c1;stroke-width:1.06666696;stroke-linecap:square;stroke-linejoin:miter;stroke-miterlimit:10;stroke-dasharray:none;stroke-opacity:1"
         id="path68"
         inkscape:connector-curvature="0" /></g><g
       id="g70"
       transform="matrix(1,0,0,-1,0,-14.15667)"><path
         d="M 384.301,0.535 V 105.309"
         style="fill:none;stroke:#ffc1c1;stroke-width:1.06666696;stroke-linecap:square;stroke-linejoin:miter;stroke-miterlimit:10;stroke-dasharray:none;stroke-opacity:1"
         id="path72"
         inkscape:connector-curvature="0" /></g><g
       id="g74"
       transform="matrix(1,0,0,-1,0,-14.15667)"><path
         d="M 400.293,0.535 V 105.309"
         style="fill:none;stroke:#ffc1c1;stroke-width:1.06666696;stroke-linecap:square;stroke-linejoin:miter;stroke-miterlimit:10;stroke-dasharray:none;stroke-opacity:1"
         id="path76"
         inkscape:connector-curvature="0" /></g><g
       id="g78"
       transform="matrix(1,0,0,-1,0,-14.15667)"><path
         d="M 416.281,0.535 V 105.309"
         style="fill:none;stroke:#ffc1c1;stroke-width:1.06666696;stroke-linecap:square;stroke-linejoin:miter;stroke-miterlimit:10;stroke-dasharray:none;stroke-opacity:1"
         id="path80"
         inkscape:connector-curvature="0" /></g><g
       id="g82"
       transform="matrix(1,0,0,-1,0,-14.15667)"><path
         d="M 432.281,0.535 V 105.309"
         style="fill:none;stroke:#ffc1c1;stroke-width:1.06666696;stroke-linecap:square;stroke-linejoin:miter;stroke-miterlimit:10;stroke-dasharray:none;stroke-opacity:1"
         id="path84"
         inkscape:connector-curvature="0" /></g><g
       id="g86"
       transform="matrix(1,0,0,-1,0,-14.15667)"><path
         d="M 448.266,0.535 V 105.309"
         style="fill:none;stroke:#ffc1c1;stroke-width:1.06666696;stroke-linecap:square;stroke-linejoin:miter;stroke-miterlimit:10;stroke-dasharray:none;stroke-opacity:1"
         id="path88"
         inkscape:connector-curvature="0" /></g><g
       id="g90"
       transform="matrix(1,0,0,-1,0,-14.15667)"><path
         d="M 464.258,0.535 V 105.309"
         style="fill:none;stroke:#ffc1c1;stroke-width:1.06666696;stroke-linecap:square;stroke-linejoin:miter;stroke-miterlimit:10;stroke-dasharray:none;stroke-opacity:1"
         id="path92"
         inkscape:connector-curvature="0" /></g><g
       id="g94"
       transform="matrix(1,0,0,-1,0,-14.15667)"><path
         d="M 480.246,0.535 V 105.309"
         style="fill:none;stroke:#ffc1c1;stroke-width:1.06666696;stroke-linecap:square;stroke-linejoin:miter;stroke-miterlimit:10;stroke-dasharray:none;stroke-opacity:1"
         id="path96"
         inkscape:connector-curvature="0" /></g><g
       id="g98"
       transform="matrix(1,0,0,-1,0,-14.15667)"><path
         d="M 496.238,0.535 V 105.309"
         style="fill:none;stroke:#ffc1c1;stroke-width:1.06666696;stroke-linecap:square;stroke-linejoin:miter;stroke-miterlimit:10;stroke-dasharray:none;stroke-opacity:1"
         id="path100"
         inkscape:connector-curvature="0" /></g><g
       id="g102"
       transform="matrix(1,0,0,-1,0,-14.15667)"><path
         d="M 512.227,0.535 V 105.309"
         style="fill:none;stroke:#ffc1c1;stroke-width:1.06666696;stroke-linecap:square;stroke-linejoin:miter;stroke-miterlimit:10;stroke-dasharray:none;stroke-opacity:1"
         id="path104"
         inkscape:connector-curvature="0" /></g><path
       sodipodi:nodetypes="cc"
       inkscape:connector-curvature="0"
       id="path180"
       style="fill:none;stroke:#ffc1c1;stroke-width:1.06666696;stroke-linecap:square;stroke-linejoin:miter;stroke-miterlimit:10;stroke-dasharray:none;stroke-opacity:1"
       d="M 0.535,-67.30167 H 511.89885" /><path
       sodipodi:nodetypes="cc"
       inkscape:connector-curvature="0"
       id="path184"
       style="fill:none;stroke:#ffc1c1;stroke-width:1.06666696;stroke-linecap:square;stroke-linejoin:miter;stroke-miterlimit:10;stroke-dasharray:none;stroke-opacity:1"
       d="M 0.535,-51.33267 H 511.89885" /><path
       sodipodi:nodetypes="cc"
       inkscape:connector-curvature="0"
       id="path188"
       style="fill:none;stroke:#ffc1c1;stroke-width:1.06666696;stroke-linecap:square;stroke-linejoin:miter;stroke-miterlimit:10;stroke-dasharray:none;stroke-opacity:1"
       d="M 0.535,-35.37567 H 511.89885" /><path
       sodipodi:nodetypes="cc"
       inkscape:connector-curvature="0"
       id="path192"
       style="fill:none;stroke:#ffc1c1;stroke-width:1.06666696;stroke-linecap:square;stroke-linejoin:miter;stroke-miterlimit:10;stroke-dasharray:none;stroke-opacity:1"
       d="M 0.535,-19.40667 H 511.89885" /><g
       id="g194"
       transform="matrix(1,0,0,-1,0,-14.15667)"><path
         d="M 0.535,0.535 V 105.309"
         style="fill:none;stroke:#ffc1c1;stroke-width:1.06666696;stroke-linecap:square;stroke-linejoin:miter;stroke-miterlimit:10;stroke-dasharray:none;stroke-opacity:1"
         id="path196"
         inkscape:connector-curvature="0" /></g><g
       id="g198"
       transform="matrix(1,0,0,-1,0,-14.15667)"><path
         d="M 16.52,0.535 V 105.309"
         style="fill:none;stroke:#ffc1c1;stroke-width:1.06666696;stroke-linecap:square;stroke-linejoin:miter;stroke-miterlimit:10;stroke-dasharray:none;stroke-opacity:1"
         id="path200"
         inkscape:connector-curvature="0" /></g><g
       id="g202"
       transform="matrix(1,0,0,-1,0,-14.15667)"><path
         d="M 32.508,0.535 V 105.309"
         style="fill:none;stroke:#ffc1c1;stroke-width:1.06666696;stroke-linecap:square;stroke-linejoin:miter;stroke-miterlimit:10;stroke-dasharray:none;stroke-opacity:1"
         id="path204"
         inkscape:connector-curvature="0" /></g><g
       id="g206"
       transform="matrix(1,0,0,-1,0,-14.15667)"><path
         d="M 48.5,0.535 V 105.309"
         style="fill:none;stroke:#ffc1c1;stroke-width:1.06666696;stroke-linecap:square;stroke-linejoin:miter;stroke-miterlimit:10;stroke-dasharray:none;stroke-opacity:1"
         id="path208"
         inkscape:connector-curvature="0" /></g><g
       id="g210"
       transform="matrix(1,0,0,-1,0,-14.15667)"><path
         d="M 64.488,0.535 V 105.309"
         style="fill:none;stroke:#ffc1c1;stroke-width:1.06666696;stroke-linecap:square;stroke-linejoin:miter;stroke-miterlimit:10;stroke-dasharray:none;stroke-opacity:1"
         id="path212"
         inkscape:connector-curvature="0" /></g><g
       id="g214"
       transform="matrix(1,0,0,-1,0,-14.15667)"><path
         d="M 80.48,0.535 V 105.309"
         style="fill:none;stroke:#ffc1c1;stroke-width:1.06666696;stroke-linecap:square;stroke-linejoin:miter;stroke-miterlimit:10;stroke-dasharray:none;stroke-opacity:1"
         id="path216"
         inkscape:connector-curvature="0" /></g><g
       id="g218"
       transform="matrix(1,0,0,-1,0,-14.15667)"><path
         d="M 96.469,0.535 V 105.309"
         style="fill:none;stroke:#ffc1c1;stroke-width:1.06666696;stroke-linecap:square;stroke-linejoin:miter;stroke-miterlimit:10;stroke-dasharray:none;stroke-opacity:1"
         id="path220"
         inkscape:connector-curvature="0" /></g><g
       id="g222"
       transform="matrix(1,0,0,-1,0,-14.15667)"><path
         d="M 112.457,0.535 V 105.309"
         style="fill:none;stroke:#ffc1c1;stroke-width:1.06666696;stroke-linecap:square;stroke-linejoin:miter;stroke-miterlimit:10;stroke-dasharray:none;stroke-opacity:1"
         id="path224"
         inkscape:connector-curvature="0" /></g><g
       id="g226"
       transform="matrix(1,0,0,-1,0,-14.15667)"><path
         d="M 128.445,0.535 V 105.309"
         style="fill:none;stroke:#ffc1c1;stroke-width:1.06666696;stroke-linecap:square;stroke-linejoin:miter;stroke-miterlimit:10;stroke-dasharray:none;stroke-opacity:1"
         id="path228"
         inkscape:connector-curvature="0" /></g><g
       id="g230"
       transform="matrix(1,0,0,-1,0,-14.15667)"><path
         d="M 144.445,0.535 V 105.309"
         style="fill:none;stroke:#ffc1c1;stroke-width:1.06666696;stroke-linecap:square;stroke-linejoin:miter;stroke-miterlimit:10;stroke-dasharray:none;stroke-opacity:1"
         id="path232"
         inkscape:connector-curvature="0" /></g><path
       sodipodi:nodetypes="cc"
       inkscape:connector-curvature="0"
       id="path236"
       style="fill:none;stroke:#ffc1c1;stroke-width:1.06666696;stroke-linecap:square;stroke-linejoin:miter;stroke-miterlimit:10;stroke-dasharray:none;stroke-opacity:1"
       d="M 0.535,-115.19167 H 511.89885" /><path
       sodipodi:nodetypes="cc"
       inkscape:connector-curvature="0"
       id="path240"
       style="fill:none;stroke:#ffc1c1;stroke-width:1.06666696;stroke-linecap:square;stroke-linejoin:miter;stroke-miterlimit:10;stroke-dasharray:none;stroke-opacity:1"
       d="M 0.535,-99.22267 H 511.89885" /><path
       sodipodi:nodetypes="cc"
       inkscape:connector-curvature="0"
       id="path244"
       style="fill:none;stroke:#ffc1c1;stroke-width:1.06666696;stroke-linecap:square;stroke-linejoin:miter;stroke-miterlimit:10;stroke-dasharray:none;stroke-opacity:1"
       d="M 0.535,-83.26567 H 511.89885" /><g
       id="g246"
       transform="matrix(1,0,0,-1,0,-14.15667)"><path
         sodipodi:nodetypes="cccccccccccccccccccccccccccccccccccccccccccccccccccccccccccccccccccccccccccccccccccccccccccccccccccccccccccccccccccccccccccccccccccccccccccccccccccccccccccccccccccccccccccccccccccccccccccccccccccccccccccccccccccccccccccccccccccccccccccccccccccccccccccccccccccccccccccccccccccccccccccccccccccccccccccccccccccccccccccccccccccccccccccccccccccccccccccccccccccccccccccccccccccccccccccccccccccccccccccccccccccccccccccccccccccccccccccccccccccccccccccccccccccccccccccccccccccccccccccccccccc"
         d="m 0.91,88.832 1.063,0.387 0.535,-0.196 2.922,-2.574 1.062,-0.453 0.27,0.066 0.797,0.516 h 0.265 l 1.594,0.32 h 0.266 l 2.66,0.711 3.453,1.543 h 0.269 l 0.797,-0.257 1.594,-1.286 1.328,-1.547 2.66,-1.289 0.266,-0.773 0.531,-4.898 0.531,-11.793 1.063,-44.911 0.535,-16.562 0.266,-0.191 0.265,5.089 1.594,74.684 0.531,1.738 0.266,0.324 1.332,6.122 0.531,0.32 h 0.532 l 0.796,-0.258 1.594,-0.965 1.067,-0.644 0.796,-0.711 0.797,-2.063 1.328,-3.285 2.129,-2.898 1.063,-1.614 1.859,-1.156 2.129,-0.969 h 0.266 l 0.531,-0.062 h 0.266 l 0.796,0.258 1.329,1.093 2.128,4.125 1.329,1.868 0.797,0.515 h 0.265 l 1.067,0.324 2.656,1.415 0.531,1.289 0.531,0.968 0.801,0.45 1.594,0.324 h 0.265 l 0.532,0.062 h 0.797 l 2.66,-0.707 1.328,-0.711 0.265,-0.258 2.129,-4.187 1.063,-1.031 0.266,-0.063 0.531,0.387 0.797,1.418 1.066,2.769 1.594,1.29 1.062,0.644 0.797,1.031 1.332,1.934 0.531,0.387 h 0.266 l 0.531,-0.325 0.797,-1.031 2.395,-5.219 1.062,-1.031 0.531,-0.129 0.532,0.196 5.316,2.64 2.129,2.77 0.797,0.453 0.531,0.062 h 0.266 l 0.265,-0.062 1.329,-1.16 0.531,-1.16 1.066,-2.516 1.328,-2.254 1.063,-2.383 0.797,-0.387 0.8,-0.257 0.532,-0.196 h 0.265 l 1.328,-0.32 0.266,-0.582 0.531,-7.926 0.797,-27.769 1.067,-37.567 0.265,1.996 0.531,23.778 0.797,45.105 0.532,6.703 0.531,1.289 0.531,0.512 0.531,3.609 0.536,2.965 0.531,0.516 0.265,-0.191 0.797,-1.805 0.797,-2.965 1.594,-2.965 2.394,-1.031 2.926,-0.774 1.063,-0.644 4.519,-3.094 1.594,-0.836 0.266,-0.386 0.796,-1.805 0.801,-0.707 h 0.266 l 0.531,0.644 1.063,1.418 1.593,2.125 1.598,2.641 1.594,0.969 1.859,1.031 5.586,5.476 0.266,-0.066 0.531,-0.578 1.062,-2.449 0.797,-1.61 0.797,-0.515 0.801,-0.453 0.531,-0.063 h 0.532 l 0.796,0.258 1.329,1.16 0.796,1.223 1.067,1.804 1.594,0.965 0.531,0.196 1.062,0.386 h 0.266 l 0.801,0.129 h 0.531 l 4.785,-2.449 2.125,-1.355 1.063,-0.579 2.129,-2.125 0.265,-0.711 0.266,-1.48 0.531,-7.863 0.797,-25.129 1.066,-40.207 0.266,-0.129 0.266,5.219 1.593,68.043 0.797,3.546 0.531,3.735 0.801,1.547 0.797,0.582 0.797,0.258 0.531,0.191 0.797,0.258 h 0.266 l 0.531,-0.387 1.066,-1.805 1.063,-1.933 2.39,-3.219 1.067,-1.934 4.519,-4.125 2.922,-1.289 0.532,0.196 1.066,1.285 2.391,4.64 1.062,0.582 3.457,0.903 2.926,1.93 0.531,0.066 2.922,-1.352 h 0.27 l 0.531,-0.066 h 1.062 l 0.797,-0.129 h 0.266 l 0.531,-0.062 h 0.266 l 1.597,-0.454 0.266,-0.191 0.797,-1.289 0.797,-0.711 h 0.265 l 0.532,0.773 0.531,1.934 0.797,2.449 0.8,0.774 1.86,0.773 0.797,0.258 0.531,0.191 h 0.266 l 1.597,0.645 h 0.266 l 0.797,-0.258 0.797,-0.644 0.531,-1.094 0.797,-1.996 1.066,-2.063 0.797,-1.676 1.063,-0.582 0.796,-0.257 h 0.797 l 0.535,0.128 3.719,2.516 1.598,0.645 h 0.266 l 2.124,0.578 0.797,0.258 0.266,0.066 0.535,-0.195 0.531,-0.321 0.797,-0.902 0.797,-1.676 0.797,-0.453 1.063,-0.258 0.8,0.196 1.86,1.16 0.531,0.191 h 0.266 l 0.531,-0.191 0.531,-0.258 0.27,-0.711 0.531,-7.344 0.531,-17.078 1.328,-52.387 0.266,1.676 0.531,22.875 1.063,52.067 0.535,3.027 0.797,2.641 0.531,1.546 0.797,0.516 h 0.531 l 0.797,-0.258 0.797,-0.773 1.066,-1.547 0.797,-0.258 h 0.266 l 0.531,-0.062 h 0.531 l 2.926,-0.707 0.797,-0.711 0.797,-1.805 2.129,-2.254 1.062,-3.351 3.723,-6.704 0.265,-0.062 0.266,0.062 0.797,1.032 0.797,2.386 1.062,3.868 1.332,3.863 2.391,5.672 1.062,1.093 0.536,0.129 h 1.593 l 0.532,-0.062 h 0.531 l 0.531,-0.387 1.063,-1.805 1.597,-3.222 1.594,-1.289 0.266,-0.063 1.332,0.387 0.531,0.32 0.266,0.258 1.328,2.516 3.191,2.511 1.063,0.836 2.125,1.161 0.265,-0.063 0.535,-0.902 1.594,-3.672 1.328,-0.84 1.332,-0.387 0.531,-0.32 0.266,0.062 0.531,0.774 2.922,5.156 1.332,0.774 1.063,0.191 h 0.265 l 0.797,-0.258 0.532,-0.32 1.066,-1.613 1.594,-3.414 1.062,-1.032 1.063,-0.191 1.332,0.387 1.593,0.902 1.329,0.769 3.457,1.547 0.796,0.258 0.532,0.453 h 0.265 l 1.067,-1.871 1.328,-2.383 0.797,-0.836 0.531,-0.129 0.797,-0.128 h 0.265 l 0.801,-0.129 h 1.328 l 1.329,0.773 0.531,0.578 1.066,2.125 0.266,-0.515 0.265,-1.543 0.532,-9.473 0.797,-31.445 0.796,-31.512 0.266,-0.387 0.266,4.77 1.597,67.918 0.266,0.644 1.062,-1.742 1.063,1.16 1.328,0.516 1.067,0.195 h 0.265 L 342,87.738 h 1.062 l 1.063,0.321 1.066,0.386 0.797,0.258 0.532,0.387 1.062,0.965 0.266,-0.063 0.797,-0.773 0.531,-1.934 3.988,-13.855 1.066,-0.899 0.532,-0.066 0.265,0.066 0.797,0.77 0.531,1.289 0.532,1.676 1.328,5.929 1.597,3.93 0.532,1.031 0.797,1.934 1.593,0.965 0.801,0.129 h 0.531 l 1.329,-1.161 1.062,-0.835 3.723,-1.676 0.531,-0.063 1.062,0.321 2.926,1.418 2.395,2.707 0.531,0.191 1.594,0.711 h 0.797 l 0.531,-0.195 0.531,-0.387 0.801,-0.965 0.266,-0.773 0.531,-4.961 0.531,-12.243 1.063,-47.492 0.531,-16.687 0.265,0.129 0.266,6.379 1.598,68.558 1.859,11.344 1.594,3.219 1.066,0.644 0.266,-0.258 2.39,-4.765 1.067,-1.16 1.062,-1.418 2.125,-2.063 0.532,-1.547 3.191,-9.277 0.797,-0.969 h 0.266 l 0.531,0.516 1.066,1.16 1.063,1.289 0.531,0.965 1.594,3.609 1.066,2.258 1.328,3.992 1.063,0.387 0.531,0.066 0.266,-0.066 1.863,-2.063 0.797,-0.769 0.531,-0.129 0.797,-0.129 h 0.531 l 1.063,-0.195 h 0.269 l 0.266,0.129 1.328,1.351 3.457,1.547 0.797,0.258 1.062,0.582 0.532,-0.387 3.191,-4.187 0.797,-1.032 0.797,-0.515 0.531,-0.067 h 0.531 l 0.801,0.516 1.063,0.969 1.593,1.351 1.598,0.707 h 0.266 l 0.796,0.258 0.532,0.453 0.265,-0.711 0.532,-6.378 0.531,-15.852 1.597,-58.895 0.266,5.286 1.859,70.3 1.86,4.899 0.801,0.512 1.328,0.386 2.39,1.227 1.598,2.383 0.531,0.324 h 0.266 l 0.265,-0.067 0.797,-0.707 1.063,-1.871 1.066,-2.898 4.52,-12.629 0.797,-0.645 0.265,-0.066 0.266,0.066 0.531,0.516 0.531,0.836 2.395,6.188 1.328,2.707 1.063,1.675 2.394,2.575 1.86,1.226 h 0.796 l 0.532,-0.195 4.519,-3.414 1.598,-2.578 0.531,-0.258 0.266,-0.063 0.531,0.192 0.797,0.902 0.531,1.484 1.598,4.446 1.062,0.773 1.063,0.192 h 0.265 l 0.797,0.386 0.266,-0.258 1.863,-3.476 1.328,-1.098 0.531,-0.386 1.333,-1.161 1.062,0.969 2.922,3.219 1.863,0.515 0.797,0.387 0.531,-0.773 0.797,-1.031 2.129,-1.352 h 0.531 l 0.532,0.195 0.796,0.516 3.457,2.316 0.532,-0.129 2.125,-1.738"
         style="fill:none;stroke:#000000;stroke-width:0.47999999;stroke-linecap:square;stroke-linejoin:round;stroke-miterlimit:10;stroke-dasharray:none;stroke-opacity:1"
         id="path248"
         inkscape:connector-curvature="0" /></g></g><g
     style="display:none"
     sodipodi:insensitive="true"
     inkscape:label="Rhythm"
     id="layer1"
     inkscape:groupmode="layer"><path
       sodipodi:nodetypes="cc"
       inkscape:connector-curvature="0"
       id="path91"
       d="M 33.625285,17.134238 H 587.36658"
       style="display:inline;fill:none;stroke:#df5300;stroke-width:2;stroke-linecap:butt;stroke-linejoin:miter;stroke-miterlimit:4;stroke-dasharray:none;stroke-opacity:1" /><path
       inkscape:connector-curvature="0"
       id="path93"
       d="M 587.6772,8.3080701 V 25.960405"
       style="display:inline;fill:none;stroke:#df5300;stroke-width:2;stroke-linecap:butt;stroke-linejoin:miter;stroke-miterlimit:4;stroke-dasharray:none;stroke-opacity:1" /><path
       style="display:inline;fill:none;stroke:#df5300;stroke-width:2;stroke-linecap:butt;stroke-linejoin:miter;stroke-miterlimit:4;stroke-dasharray:none;stroke-opacity:1"
       d="M 513.6772,8.3080701 V 25.960405"
       id="path3798"
       inkscape:connector-curvature="0" /><path
       inkscape:connector-curvature="0"
       id="path3800"
       d="M 445.677,8.3080701 V 25.960405"
       style="display:inline;fill:none;stroke:#df5300;stroke-width:2;stroke-linecap:butt;stroke-linejoin:miter;stroke-miterlimit:4;stroke-dasharray:none;stroke-opacity:1" /><path
       style="display:inline;fill:none;stroke:#df5300;stroke-width:2;stroke-linecap:butt;stroke-linejoin:miter;stroke-miterlimit:4;stroke-dasharray:none;stroke-opacity:1"
       d="M 329.677,8.3080701 V 25.960405"
       id="path3802"
       inkscape:connector-curvature="0" /><path
       inkscape:connector-curvature="0"
       id="path3804"
       d="M 223.177,8.3080701 V 25.960405"
       style="display:inline;fill:none;stroke:#df5300;stroke-width:2;stroke-linecap:butt;stroke-linejoin:miter;stroke-miterlimit:4;stroke-dasharray:none;stroke-opacity:1" /><path
       style="display:inline;fill:none;stroke:#df5300;stroke-width:2;stroke-linecap:butt;stroke-linejoin:miter;stroke-miterlimit:4;stroke-dasharray:none;stroke-opacity:1"
       d="M 137.677,8.3080701 V 25.960405"
       id="path3806"
       inkscape:connector-curvature="0" /><path
       inkscape:connector-curvature="0"
       id="path3808"
       d="M 34.125285,8.3080701 V 25.960405"
       style="display:inline;fill:none;stroke:#df5300;stroke-width:2;stroke-linecap:butt;stroke-linejoin:miter;stroke-miterlimit:4;stroke-dasharray:none;stroke-opacity:1" /></g><g
     style="display:none"
     inkscape:label="fwaves"
     id="layer2"
     inkscape:groupmode="layer"><ellipse
       ry="14.229709"
       rx="25.984686"
       cy="120.70434"
       cx="98.370598"
       id="path946"
       style="fill:none;stroke:#df5300;stroke-width:2;stroke-miterlimit:4;stroke-dasharray:none;stroke-opacity:1" /><ellipse
       style="fill:none;stroke:#df5300;stroke-width:2;stroke-miterlimit:4;stroke-dasharray:none;stroke-opacity:1"
       id="ellipse950"
       cx="196.70139"
       cy="119.46697"
       rx="18.869831"
       ry="14.229709" /><ellipse
       ry="14.229709"
       rx="25.984686"
       cy="113.92027"
       cx="300.0827"
       id="ellipse952"
       style="fill:none;stroke:#df5300;stroke-width:2;stroke-miterlimit:4;stroke-dasharray:none;stroke-opacity:1" /><ellipse
       cx="407.05362"
       cy="115.77631"
       rx="33.266777"
       ry="14.229709"
       style="fill:none;stroke:#df5300;stroke-width:2;stroke-miterlimit:4;stroke-dasharray:none;stroke-opacity:1"
       id="ellipse954" /><ellipse
       ry="12.064318"
       rx="19.488514"
       cy="117.9417"
       cx="564.55743"
       id="ellipse956"
       style="fill:none;stroke:#df5300;stroke-width:2;stroke-miterlimit:4;stroke-dasharray:none;stroke-opacity:1" /><ellipse
       style="fill:none;stroke:#df5300;stroke-width:2;stroke-miterlimit:4;stroke-dasharray:none;stroke-opacity:1"
       id="ellipse958"
       cx="654.37061"
       cy="116.70434"
       rx="25.984686"
       ry="14.229709" /><ellipse
       style="fill:none;stroke:#df5300;stroke-width:2;stroke-miterlimit:4;stroke-dasharray:none;stroke-opacity:1"
       id="ellipse950-5"
       cx="495.56509"
       cy="118.84829"
       rx="14.045995"
       ry="9.2802448" /></g></svg>
