<?xml version="1.0" encoding="UTF-8" standalone="no"?>
<!-- Created with Inkscape (http://www.inkscape.org/) -->

<svg
   version="1.1"
   id="svg2"
   xml:space="preserve"
   width="683.67773"
   height="141.12444"
   viewBox="0 0 683.67773 141.12444"
   sodipodi:docname="A00848.svg"
   inkscape:version="1.2.2 (b0a8486541, 2022-12-01)"
   xmlns:inkscape="http://www.inkscape.org/namespaces/inkscape"
   xmlns:sodipodi="http://sodipodi.sourceforge.net/DTD/sodipodi-0.dtd"
   xmlns="http://www.w3.org/2000/svg"
   xmlns:svg="http://www.w3.org/2000/svg"
   xmlns:rdf="http://www.w3.org/1999/02/22-rdf-syntax-ns#"
   xmlns:cc="http://creativecommons.org/ns#"
   xmlns:dc="http://purl.org/dc/elements/1.1/"><metadata
     id="metadata8"><rdf:RDF><cc:Work
         rdf:about=""><dc:format>image/svg+xml</dc:format><dc:type
           rdf:resource="http://purl.org/dc/dcmitype/StillImage" /></cc:Work></rdf:RDF></metadata><defs
     id="defs6" /><sodipodi:namedview
     pagecolor="#ffffff"
     bordercolor="#666666"
     borderopacity="1"
     objecttolerance="10"
     gridtolerance="10"
     guidetolerance="10"
     inkscape:pageopacity="0"
     inkscape:pageshadow="2"
     inkscape:window-width="1600"
     inkscape:window-height="928"
     id="namedview4"
     showgrid="false"
     inkscape:zoom="1.7844665"
     inkscape:cx="82.657758"
     inkscape:cy="73.411297"
     inkscape:window-x="0"
     inkscape:window-y="0"
     inkscape:window-maximized="1"
     inkscape:current-layer="layer2"
     inkscape:pagecheckerboard="0"
     inkscape:showpageshadow="2"
     inkscape:deskcolor="#d1d1d1" /><g
     id="g10"
     inkscape:groupmode="layer"
     inkscape:label="A00848"
     transform="matrix(1.3333333,0,0,-1.3333333,0,141.12444)"
     style="display:inline"
     sodipodi:insensitive="true"><g
       id="g12"><g
         id="g14"
         transform="matrix(1,0,0,-1,0,105.84333)"><path
           d="M 160.438,0.535 V 105.309"
           style="fill:none;stroke:#ffc1c1;stroke-width:1.06666601;stroke-linecap:square;stroke-linejoin:miter;stroke-miterlimit:10;stroke-dasharray:none;stroke-opacity:1"
           id="path16"
           inkscape:connector-curvature="0" /></g><g
         id="g18"
         transform="matrix(1,0,0,-1,0,105.84333)"><path
           d="M 176.43,0.535 V 105.309"
           style="fill:none;stroke:#ffc1c1;stroke-width:1.06666601;stroke-linecap:square;stroke-linejoin:miter;stroke-miterlimit:10;stroke-dasharray:none;stroke-opacity:1"
           id="path20"
           inkscape:connector-curvature="0" /></g><g
         id="g22"
         transform="matrix(1,0,0,-1,0,105.84333)"><path
           d="M 192.418,0.535 V 105.309"
           style="fill:none;stroke:#ffc1c1;stroke-width:1.06666601;stroke-linecap:square;stroke-linejoin:miter;stroke-miterlimit:10;stroke-dasharray:none;stroke-opacity:1"
           id="path24"
           inkscape:connector-curvature="0" /></g><g
         id="g26"
         transform="matrix(1,0,0,-1,0,105.84333)"><path
           d="M 208.41,0.535 V 105.309"
           style="fill:none;stroke:#ffc1c1;stroke-width:1.06666601;stroke-linecap:square;stroke-linejoin:miter;stroke-miterlimit:10;stroke-dasharray:none;stroke-opacity:1"
           id="path28"
           inkscape:connector-curvature="0" /></g><g
         id="g30"
         transform="matrix(1,0,0,-1,0,105.84333)"><path
           d="M 224.395,0.535 V 105.309"
           style="fill:none;stroke:#ffc1c1;stroke-width:1.06666601;stroke-linecap:square;stroke-linejoin:miter;stroke-miterlimit:10;stroke-dasharray:none;stroke-opacity:1"
           id="path32"
           inkscape:connector-curvature="0" /></g><g
         id="g34"
         transform="matrix(1,0,0,-1,0,105.84333)"><path
           d="M 240.395,0.535 V 105.309"
           style="fill:none;stroke:#ffc1c1;stroke-width:1.06666601;stroke-linecap:square;stroke-linejoin:miter;stroke-miterlimit:10;stroke-dasharray:none;stroke-opacity:1"
           id="path36"
           inkscape:connector-curvature="0" /></g><g
         id="g38"
         transform="matrix(1,0,0,-1,0,105.84333)"><path
           d="M 256.387,0.535 V 105.309"
           style="fill:none;stroke:#ffc1c1;stroke-width:1.06666601;stroke-linecap:square;stroke-linejoin:miter;stroke-miterlimit:10;stroke-dasharray:none;stroke-opacity:1"
           id="path40"
           inkscape:connector-curvature="0" /></g><g
         id="g42"
         transform="matrix(1,0,0,-1,0,105.84333)"><path
           d="M 272.375,0.535 V 105.309"
           style="fill:none;stroke:#ffc1c1;stroke-width:1.06666601;stroke-linecap:square;stroke-linejoin:miter;stroke-miterlimit:10;stroke-dasharray:none;stroke-opacity:1"
           id="path44"
           inkscape:connector-curvature="0" /></g><g
         id="g46"
         transform="matrix(1,0,0,-1,0,105.84333)"><path
           d="M 288.367,0.535 V 105.309"
           style="fill:none;stroke:#ffc1c1;stroke-width:1.06666601;stroke-linecap:square;stroke-linejoin:miter;stroke-miterlimit:10;stroke-dasharray:none;stroke-opacity:1"
           id="path48"
           inkscape:connector-curvature="0" /></g><g
         id="g50"
         transform="matrix(1,0,0,-1,0,105.84333)"><path
           d="M 304.355,0.535 V 105.309"
           style="fill:none;stroke:#ffc1c1;stroke-width:1.06666601;stroke-linecap:square;stroke-linejoin:miter;stroke-miterlimit:10;stroke-dasharray:none;stroke-opacity:1"
           id="path52"
           inkscape:connector-curvature="0" /></g><g
         id="g54"
         transform="matrix(1,0,0,-1,0,105.84333)"><path
           d="M 320.34,0.535 V 105.309"
           style="fill:none;stroke:#ffc1c1;stroke-width:1.06666601;stroke-linecap:square;stroke-linejoin:miter;stroke-miterlimit:10;stroke-dasharray:none;stroke-opacity:1"
           id="path56"
           inkscape:connector-curvature="0" /></g><g
         id="g58"
         transform="matrix(1,0,0,-1,0,105.84333)"><path
           d="M 336.332,0.535 V 105.309"
           style="fill:none;stroke:#ffc1c1;stroke-width:1.06666601;stroke-linecap:square;stroke-linejoin:miter;stroke-miterlimit:10;stroke-dasharray:none;stroke-opacity:1"
           id="path60"
           inkscape:connector-curvature="0" /></g><g
         id="g62"
         transform="matrix(1,0,0,-1,0,105.84333)"><path
           d="M 352.32,0.535 V 105.309"
           style="fill:none;stroke:#ffc1c1;stroke-width:1.06666601;stroke-linecap:square;stroke-linejoin:miter;stroke-miterlimit:10;stroke-dasharray:none;stroke-opacity:1"
           id="path64"
           inkscape:connector-curvature="0" /></g><g
         id="g66"
         transform="matrix(1,0,0,-1,0,105.84333)"><path
           d="M 368.312,0.535 V 105.309"
           style="fill:none;stroke:#ffc1c1;stroke-width:1.06666601;stroke-linecap:square;stroke-linejoin:miter;stroke-miterlimit:10;stroke-dasharray:none;stroke-opacity:1"
           id="path68"
           inkscape:connector-curvature="0" /></g><g
         id="g70"
         transform="matrix(1,0,0,-1,0,105.84333)"><path
           d="M 384.301,0.535 V 105.309"
           style="fill:none;stroke:#ffc1c1;stroke-width:1.06666601;stroke-linecap:square;stroke-linejoin:miter;stroke-miterlimit:10;stroke-dasharray:none;stroke-opacity:1"
           id="path72"
           inkscape:connector-curvature="0" /></g><g
         id="g74"
         transform="matrix(1,0,0,-1,0,105.84333)"><path
           d="M 400.293,0.535 V 105.309"
           style="fill:none;stroke:#ffc1c1;stroke-width:1.06666601;stroke-linecap:square;stroke-linejoin:miter;stroke-miterlimit:10;stroke-dasharray:none;stroke-opacity:1"
           id="path76"
           inkscape:connector-curvature="0" /></g><g
         id="g78"
         transform="matrix(1,0,0,-1,0,105.84333)"><path
           d="M 416.281,0.535 V 105.309"
           style="fill:none;stroke:#ffc1c1;stroke-width:1.06666601;stroke-linecap:square;stroke-linejoin:miter;stroke-miterlimit:10;stroke-dasharray:none;stroke-opacity:1"
           id="path80"
           inkscape:connector-curvature="0" /></g><g
         id="g82"
         transform="matrix(1,0,0,-1,0,105.84333)"><path
           d="M 432.281,0.535 V 105.309"
           style="fill:none;stroke:#ffc1c1;stroke-width:1.06666601;stroke-linecap:square;stroke-linejoin:miter;stroke-miterlimit:10;stroke-dasharray:none;stroke-opacity:1"
           id="path84"
           inkscape:connector-curvature="0" /></g><g
         id="g86"
         transform="matrix(1,0,0,-1,0,105.84333)"><path
           d="M 448.266,0.535 V 105.309"
           style="fill:none;stroke:#ffc1c1;stroke-width:1.06666601;stroke-linecap:square;stroke-linejoin:miter;stroke-miterlimit:10;stroke-dasharray:none;stroke-opacity:1"
           id="path88"
           inkscape:connector-curvature="0" /></g><g
         id="g90"
         transform="matrix(1,0,0,-1,0,105.84333)"><path
           d="M 464.258,0.535 V 105.309"
           style="fill:none;stroke:#ffc1c1;stroke-width:1.06666601;stroke-linecap:square;stroke-linejoin:miter;stroke-miterlimit:10;stroke-dasharray:none;stroke-opacity:1"
           id="path92"
           inkscape:connector-curvature="0" /></g><g
         id="g94"
         transform="matrix(1,0,0,-1,0,105.84333)"><path
           d="M 480.246,0.535 V 105.309"
           style="fill:none;stroke:#ffc1c1;stroke-width:1.06666601;stroke-linecap:square;stroke-linejoin:miter;stroke-miterlimit:10;stroke-dasharray:none;stroke-opacity:1"
           id="path96"
           inkscape:connector-curvature="0" /></g><g
         id="g98"
         transform="matrix(1,0,0,-1,0,105.84333)"><path
           d="M 496.238,0.535 V 105.309"
           style="fill:none;stroke:#ffc1c1;stroke-width:1.06666601;stroke-linecap:square;stroke-linejoin:miter;stroke-miterlimit:10;stroke-dasharray:none;stroke-opacity:1"
           id="path100"
           inkscape:connector-curvature="0" /></g><g
         id="g102"
         transform="matrix(1,0,0,-1,0,105.84333)"><path
           d="M 512.227,0.535 V 105.309"
           style="fill:none;stroke:#ffc1c1;stroke-width:1.06666601;stroke-linecap:square;stroke-linejoin:miter;stroke-miterlimit:10;stroke-dasharray:none;stroke-opacity:1"
           id="path104"
           inkscape:connector-curvature="0" /></g><g
         id="g106"
         transform="matrix(1,0,0,-1,0,105.84333)"><path
           d="M 0.535,53.145 H 511.961"
           style="fill:none;stroke:#ffc1c1;stroke-width:1.06666601;stroke-linecap:square;stroke-linejoin:miter;stroke-miterlimit:10;stroke-dasharray:none;stroke-opacity:1"
           id="path108"
           inkscape:connector-curvature="0" /></g><g
         id="g110"
         transform="matrix(1,0,0,-1,0,105.84333)"><path
           d="M 0.535,37.176 H 511.961"
           style="fill:none;stroke:#ffc1c1;stroke-width:1.06666601;stroke-linecap:square;stroke-linejoin:miter;stroke-miterlimit:10;stroke-dasharray:none;stroke-opacity:1"
           id="path112"
           inkscape:connector-curvature="0" /></g><g
         id="g114"
         transform="matrix(1,0,0,-1,0,105.84333)"><path
           d="M 0.535,21.219 H 511.961"
           style="fill:none;stroke:#ffc1c1;stroke-width:1.06666601;stroke-linecap:square;stroke-linejoin:miter;stroke-miterlimit:10;stroke-dasharray:none;stroke-opacity:1"
           id="path116"
           inkscape:connector-curvature="0" /></g><g
         id="g118"
         transform="matrix(1,0,0,-1,0,105.84333)"><path
           d="M 0.535,5.25 H 511.961"
           style="fill:none;stroke:#ffc1c1;stroke-width:1.06666601;stroke-linecap:square;stroke-linejoin:miter;stroke-miterlimit:10;stroke-dasharray:none;stroke-opacity:1"
           id="path120"
           inkscape:connector-curvature="0" /></g><g
         id="g122"
         transform="matrix(1,0,0,-1,0,105.84333)"><path
           d="M 0.535,0.535 V 105.309"
           style="fill:none;stroke:#ffc1c1;stroke-width:1.06666601;stroke-linecap:square;stroke-linejoin:miter;stroke-miterlimit:10;stroke-dasharray:none;stroke-opacity:1"
           id="path124"
           inkscape:connector-curvature="0" /></g><g
         id="g126"
         transform="matrix(1,0,0,-1,0,105.84333)"><path
           d="M 16.52,0.535 V 105.309"
           style="fill:none;stroke:#ffc1c1;stroke-width:1.06666601;stroke-linecap:square;stroke-linejoin:miter;stroke-miterlimit:10;stroke-dasharray:none;stroke-opacity:1"
           id="path128"
           inkscape:connector-curvature="0" /></g><g
         id="g130"
         transform="matrix(1,0,0,-1,0,105.84333)"><path
           d="M 32.508,0.535 V 105.309"
           style="fill:none;stroke:#ffc1c1;stroke-width:1.06666601;stroke-linecap:square;stroke-linejoin:miter;stroke-miterlimit:10;stroke-dasharray:none;stroke-opacity:1"
           id="path132"
           inkscape:connector-curvature="0" /></g><g
         id="g134"
         transform="matrix(1,0,0,-1,0,105.84333)"><path
           d="M 48.5,0.535 V 105.309"
           style="fill:none;stroke:#ffc1c1;stroke-width:1.06666601;stroke-linecap:square;stroke-linejoin:miter;stroke-miterlimit:10;stroke-dasharray:none;stroke-opacity:1"
           id="path136"
           inkscape:connector-curvature="0" /></g><g
         id="g138"
         transform="matrix(1,0,0,-1,0,105.84333)"><path
           d="M 64.488,0.535 V 105.309"
           style="fill:none;stroke:#ffc1c1;stroke-width:1.06666601;stroke-linecap:square;stroke-linejoin:miter;stroke-miterlimit:10;stroke-dasharray:none;stroke-opacity:1"
           id="path140"
           inkscape:connector-curvature="0" /></g><g
         id="g142"
         transform="matrix(1,0,0,-1,0,105.84333)"><path
           d="M 80.48,0.535 V 105.309"
           style="fill:none;stroke:#ffc1c1;stroke-width:1.06666601;stroke-linecap:square;stroke-linejoin:miter;stroke-miterlimit:10;stroke-dasharray:none;stroke-opacity:1"
           id="path144"
           inkscape:connector-curvature="0" /></g><g
         id="g146"
         transform="matrix(1,0,0,-1,0,105.84333)"><path
           d="M 96.469,0.535 V 105.309"
           style="fill:none;stroke:#ffc1c1;stroke-width:1.06666601;stroke-linecap:square;stroke-linejoin:miter;stroke-miterlimit:10;stroke-dasharray:none;stroke-opacity:1"
           id="path148"
           inkscape:connector-curvature="0" /></g><g
         id="g150"
         transform="matrix(1,0,0,-1,0,105.84333)"><path
           d="M 112.457,0.535 V 105.309"
           style="fill:none;stroke:#ffc1c1;stroke-width:1.06666601;stroke-linecap:square;stroke-linejoin:miter;stroke-miterlimit:10;stroke-dasharray:none;stroke-opacity:1"
           id="path152"
           inkscape:connector-curvature="0" /></g><g
         id="g154"
         transform="matrix(1,0,0,-1,0,105.84333)"><path
           d="M 128.445,0.535 V 105.309"
           style="fill:none;stroke:#ffc1c1;stroke-width:1.06666601;stroke-linecap:square;stroke-linejoin:miter;stroke-miterlimit:10;stroke-dasharray:none;stroke-opacity:1"
           id="path156"
           inkscape:connector-curvature="0" /></g><g
         id="g158"
         transform="matrix(1,0,0,-1,0,105.84333)"><path
           d="M 144.445,0.535 V 105.309"
           style="fill:none;stroke:#ffc1c1;stroke-width:1.06666601;stroke-linecap:square;stroke-linejoin:miter;stroke-miterlimit:10;stroke-dasharray:none;stroke-opacity:1"
           id="path160"
           inkscape:connector-curvature="0" /></g><g
         id="g162"
         transform="matrix(1,0,0,-1,0,105.84333)"><path
           d="M 0.535,101.035 H 511.961"
           style="fill:none;stroke:#ffc1c1;stroke-width:1.06666601;stroke-linecap:square;stroke-linejoin:miter;stroke-miterlimit:10;stroke-dasharray:none;stroke-opacity:1"
           id="path164"
           inkscape:connector-curvature="0" /></g><g
         id="g166"
         transform="matrix(1,0,0,-1,0,105.84333)"><path
           d="M 0.535,85.066 H 511.961"
           style="fill:none;stroke:#ffc1c1;stroke-width:1.06666601;stroke-linecap:square;stroke-linejoin:miter;stroke-miterlimit:10;stroke-dasharray:none;stroke-opacity:1"
           id="path168"
           inkscape:connector-curvature="0" /></g><g
         id="g170"
         transform="matrix(1,0,0,-1,0,105.84333)"><path
           d="M 0.535,69.109 H 511.961"
           style="fill:none;stroke:#ffc1c1;stroke-width:1.06666601;stroke-linecap:square;stroke-linejoin:miter;stroke-miterlimit:10;stroke-dasharray:none;stroke-opacity:1"
           id="path172"
           inkscape:connector-curvature="0" /></g><g
         id="g174"
         transform="matrix(1,0,0,-1,0,105.84333)"><path
           d="m 1.113,66.113 0.266,0.125 h 1.859 l 0.266,0.129 h 0.535 l 0.266,-0.129 h 0.797 l 0.265,0.129 h 1.328 l 0.266,0.129 h 1.594 l 0.265,0.125 h 0.532 l 0.265,-0.125 h 1.594 l 0.266,-0.129 h 0.531 l 0.265,-0.129 h 0.266 L 13.07,65.98 h 0.266 l 2.129,-1.027 0.265,-0.258 0.266,-0.129 0.531,-0.515 0.266,-0.383 0.531,-1.031 1.063,-2.575 0.797,-1.156 0.265,-0.258 0.266,-0.128 h 0.531 l 0.531,0.515 0.532,0.774 0.265,0.769 0.266,1.289 0.265,0.899 0.797,3.605 0.27,0.641 0.531,0.773 0.531,0.516 0.266,0.129 0.266,0.258 0.531,0.257 h 0.531 l 0.531,-0.257 0.797,-0.774 0.797,-1.156 0.266,-1.16 0.531,-4.504 0.531,-6.309 0.797,-11.84 0.797,-14.031 0.266,-0.516 0.265,1.547 0.266,8.239 0.797,40.156 0.269,6.437 0.266,0.774 0.266,-2.321 0.531,-9.136 0.265,-2.059 0.266,-1.289 0.797,-2.832 0.266,-0.516 0.531,-0.769 2.125,-2.059 3.187,-1.547 h 0.266 l 0.531,-0.257 h 0.27 l 0.265,-0.129 h 0.266 l 1.328,-0.641 0.266,-0.258 0.265,-0.129 0.266,-0.257 0.266,-0.125 0.265,-0.258 0.266,-0.129 0.531,-0.516 0.266,-0.386 0.265,-0.254 0.266,-0.516 0.266,-0.645 0.531,-0.773 0.265,-0.512 0.532,-0.773 0.265,-0.258 0.797,-1.156 0.266,-0.516 0.531,-1.414 1.332,-4.379 0.531,-0.773 0.266,-0.254 0.531,-0.258 0.266,0.125 0.531,0.773 0.531,1.415 0.797,3.992 0.531,2.445 0.532,2.574 1.062,4.504 0.531,1.414 0.266,0.649 0.531,0.769 0.266,0.258 2.125,1.031 h 1.598 l 0.265,-0.129 h 0.531 l 0.266,-0.129 h 0.266 l 0.265,-0.125 h 0.266 l 0.266,-0.128 h 0.531 l 0.266,-0.129 h 0.796 l 0.266,-0.129 h 0.797 l 0.265,-0.125 h 0.266 l 0.266,-0.129 h 0.265 l 0.266,-0.129 h 0.266 l 0.265,-0.125 h 0.266 L 69.938,66 h 0.265 l 0.266,-0.129 h 0.265 l 0.27,-0.129 h 2.656 l 0.266,0.129 h 0.797 L 74.988,66 h 1.328 l 0.266,0.129 h 0.531 l 0.266,0.125 h 0.266 l 0.265,0.129 h 0.266 l 0.531,0.258 h 0.266 l 0.265,0.129 h 0.266 l 0.266,-0.129 0.265,-0.258 0.266,-0.129 h 0.801 l 0.265,-0.125 h 0.531 L 82.164,66 h 0.266 l 0.265,-0.129 h 0.266 l 0.266,-0.129 h 0.265 l 1.328,-0.64 h 0.266 l 0.266,-0.129 h 0.265 l 0.266,-0.129 h 1.062 l 0.266,-0.125 h 0.266 l 0.265,-0.129 h 0.531 l 0.266,-0.129 h 0.266 l 0.531,-0.258 h 0.266 l 0.265,-0.258 0.266,-0.383 0.269,-0.515 0.266,-0.387 0.266,-0.512 0.796,-2.062 0.532,-1.672 0.531,-1.031 0.266,-0.383 0.265,-0.258 0.266,-0.129 h 0.265 l 0.266,0.129 0.266,0.258 0.265,0.383 0.266,0.515 0.266,0.645 1.593,7.594 0.266,1.031 0.266,0.387 0.796,0.386 h 0.266 l 0.266,0.125 h 1.332 l 0.265,-0.254 0.266,-0.128 0.266,-0.258 0.265,-0.387 0.266,-0.258 0.265,-0.769 0.797,-4.891 0.797,-9.656 0.532,-8.496 0.796,-15.446 0.266,-2.058 0.266,0.773 0.265,6.309 0.266,12.355 0.531,29.348 0.266,9.395 0.265,2.832 0.266,-2.575 0.531,-10.683 0.266,-3.348 0.531,-1.93 0.266,-0.898 0.265,-0.516 0.266,-0.386 0.266,-0.129 0.535,-0.516 0.265,-0.125 0.797,-0.773 1.328,-0.645 h 0.266 l 1.063,-0.512 h 0.265 l 1.328,-0.644 h 0.266 l 0.797,-0.387 h 0.265 l 1.063,-0.515 0.266,-0.258 0.531,-0.258 0.531,-0.512 0.27,-0.129 0.265,-0.258 0.266,-0.128 0.797,-0.774 0.265,-0.383 0.266,-0.515 0.531,-1.157 0.531,-1.031 0.797,-1.801 0.266,-0.515 0.531,-1.289 0.531,-1.672 0.797,-2.188 0.266,-0.644 0.266,-0.383 0.796,-0.773 0.266,-0.129 0.266,-0.258 h 0.265 l 0.266,0.129 0.266,0.258 0.265,0.515 0.266,0.645 0.265,0.898 0.27,1.414 0.266,1.031 0.796,4.504 0.532,3.09 0.265,1.031 0.532,2.446 0.796,2.445 0.266,0.387 0.266,0.258 0.265,0.125 0.266,0.257 1.328,0.645 h 0.266 l 0.265,0.125 h 0.532 l 0.265,0.129 h 0.797 l 0.531,0.258 h 0.266 l 0.266,0.129 h 0.265 l 0.266,0.129 h 1.066 l 0.266,-0.129 h 0.797 l 0.531,-0.258 0.531,-0.516 0.266,-0.387 0.266,-0.253 0.265,-0.129 0.266,-0.258 1.062,-0.516 h 0.266 l 0.265,-0.129 h 0.266 l 0.266,-0.125 h 1.062 l 0.266,0.125 h 0.266 l 1.062,0.516 0.266,0.258 h 0.265 l 2.129,1.031 h 0.266 l 0.531,0.258 h 0.531 l 0.532,-0.258 h 0.265 l 0.266,-0.129 h 0.265 l 0.266,-0.129 h 0.531 l 0.266,-0.125 h 0.266 l 1.062,-0.515 h 0.266 l 0.265,-0.129 h 0.532 l 0.265,-0.129 h 0.797 l 0.266,-0.125 h 0.535 l 0.265,-0.129 h 0.266 l 0.266,-0.129 h 1.593 l 0.266,-0.129 h 0.531 l 0.266,-0.125 h 0.531 l 0.266,-0.129 h 0.265 l 0.532,-0.258 h 0.265 l 0.266,-0.258 0.531,-0.257 0.266,-0.258 0.265,-0.125 0.532,-0.516 0.531,-0.773 1.328,-3.348 0.27,-0.902 0.265,-0.512 0.266,-0.258 0.531,-0.258 0.266,-0.257 0.531,-0.258 h 0.266 l 0.265,0.387 0.266,0.511 0.265,0.645 0.266,1.031 0.531,2.574 0.266,0.899 0.266,1.156 0.265,1.418 0.531,1.414 0.266,0.516 0.531,0.515 0.266,0.125 h 0.266 l 0.265,0.129 h 0.266 l 0.531,0.258 h 0.266 l 0.265,0.129 h 0.266 l 0.266,-0.129 0.265,-0.258 0.266,-0.387 0.265,-0.644 0.27,-1.027 0.797,-6.18 0.797,-10.684 0.531,-8.621 0.797,-14.805 0.266,-0.257 0.265,3.218 0.266,10.297 0.797,42.477 0.265,4.762 h 0.266 l 0.265,-4.375 0.266,-5.664 0.266,-4.376 0.265,-1.933 0.266,-1.027 0.266,-0.645 0.265,-0.387 0.532,-1.031 0.531,-0.769 0.531,-0.516 0.266,-0.129 0.265,-0.258 4.785,-2.316 h 0.532 l 1.062,-0.516 h 0.266 l 1.594,-0.769 0.265,-0.258 0.266,-0.129 0.265,-0.258 0.266,-0.387 0.266,-0.511 0.265,-0.391 0.27,-0.512 0.531,-0.773 0.531,-1.031 0.532,-1.157 0.265,-0.515 0.531,-1.414 1.329,-3.992 0.265,-0.899 0.266,-0.516 0.265,-0.386 0.266,-0.512 0.531,-0.516 h 0.797 l 0.531,0.516 0.532,0.77 0.265,0.644 0.797,3.477 0.531,3.089 0.532,2.446 1.066,5.019 0.266,1.032 0.531,1.414 0.531,0.515 1.86,0.899 h 0.265 l 0.266,0.129 h 0.265 l 0.266,0.129 h 1.063 l 0.265,-0.129 h 0.531 l 0.266,-0.129 h 0.531 l 0.532,-0.258 h 0.265 l 0.531,-0.258 h 0.266 l 0.801,-0.383 h 0.265 l 0.266,-0.129 h 0.266 l 0.265,-0.129 h 0.797 l 0.266,0.129 h 0.266 l 0.265,0.129 h 0.266 l 0.265,0.125 h 0.797 l 0.266,-0.125 h 0.797 l 0.265,-0.129 h 0.266 l 0.266,-0.129 h 0.265 l 1.063,-0.515 h 0.265 L 223,65.383 h 0.266 l 0.265,0.125 h 0.531 l 0.266,0.129 h 0.535 l 0.532,0.258 h 0.265 l 1.063,0.515 h 0.797 l 0.531,-0.258 h 0.797 l 0.265,0.129 h 0.797 l 0.266,-0.129 h 0.265 l 0.266,-0.129 h 0.266 l 0.265,-0.128 h 0.266 l 0.266,-0.125 h 0.265 l 0.266,-0.129 h 0.265 l 0.266,-0.129 h 0.266 l 0.265,-0.125 h 0.801 l 0.266,-0.129 h 0.265 l 0.266,0.129 h 0.266 l 0.265,-0.129 h 2.656 l 2.391,-1.156 0.266,-0.516 0.265,-0.645 0.266,-0.386 0.531,-1.032 1.063,-2.957 0.531,-0.773 0.801,-0.773 0.531,0.257 0.266,0.258 0.265,0.387 0.266,0.512 0.265,0.773 1.063,4.762 0.266,1.672 0.265,0.773 0.266,0.516 0.265,0.386 0.266,0.258 0.266,0.387 0.265,0.258 0.797,0.383 h 0.531 l 0.797,-0.383 0.797,-0.774 0.266,-0.386 0.265,-0.516 0.266,-1.027 0.266,-1.805 0.265,-2.316 0.535,-6.047 0.532,-7.469 0.531,-9.008 0.531,-10.555 0.266,-2.832 0.266,0.516 0.265,5.664 0.266,12.098 0.531,30.117 0.266,10.301 0.265,1.672 0.266,-0.774 0.531,-10.297 0.266,-3.347 0.531,-2.446 0.266,-0.773 0.531,-1.027 0.266,-0.258 0.796,-1.157 0.797,-0.773 2.129,-1.031 h 0.266 l 1.328,-0.641 h 0.266 l 0.796,-0.387 h 0.266 l 0.266,-0.129 h 0.265 l 0.266,-0.124 0.266,-0.258 0.265,-0.129 0.266,-0.258 0.265,-0.129 0.266,-0.258 0.531,-0.258 0.266,-0.257 0.266,-0.125 0.796,-0.774 0.266,-0.387 0.531,-1.027 0.266,-0.258 0.531,-0.773 1.332,-2.574 0.531,-1.414 1.594,-4.504 0.266,-0.645 0.797,-1.156 0.265,-0.258 0.532,-0.258 h 0.265 l 0.531,0.258 0.797,1.156 0.266,1.032 0.531,3.089 1.86,9.782 0.535,2.187 0.531,1.414 0.266,0.387 1.062,0.516 h 0.266 l 0.531,0.257 h 0.266 l 0.265,0.125 h 0.266 l 0.265,0.129 h 1.329 l 0.265,-0.129 h 0.531 l 0.266,-0.125 h 0.266 l 0.531,-0.257 h 0.266 l 0.796,-0.387 h 0.266 l 1.066,-0.516 h 0.266 l 0.531,-0.258 h 0.266 l 0.266,-0.125 h 0.797 l 0.265,-0.128 h 1.859 l 1.329,0.644 0.265,0.258 0.266,0.129 h 0.266 l 0.265,0.125 h 0.266 l 0.265,0.129 h 0.797 l 0.266,0.129 0.265,-0.129 h 0.532 l 0.535,-0.258 h 0.266 l 0.531,-0.258 h 0.265 l 0.266,-0.129 h 1.063 l 0.265,-0.125 h 0.797 l 0.266,0.125 h 3.453 l 0.265,0.129 h 1.329 l 0.265,-0.129 h 0.266 l 0.269,-0.125 h 0.266 l 1.594,-0.773 0.265,-0.258 0.266,-0.129 0.266,-0.258 0.265,-0.383 1.86,-5.277 0.265,-0.644 0.797,-1.157 0.266,-0.258 h 0.531 l 0.531,0.774 0.531,1.414 0.532,2.574 0.531,2.317 0.266,1.546 0.535,1.157 0.265,0.386 0.797,0.77 0.797,0.387 h 0.531 l 0.797,-0.387 0.531,-0.512 0.797,-1.16 0.266,-0.898 0.797,-6.438 0.797,-10.941 0.531,-9.782 0.531,-11.199 0.266,-2.058 0.265,0.902 0.266,6.82 0.531,28.832 0.266,14.418 0.266,9.395 0.269,2.703 0.266,-2.832 0.531,-10.813 0.266,-3.343 0.531,-2.317 0.266,-0.902 0.531,-1.031 0.265,-0.387 0.266,-0.512 0.266,-0.386 0.265,-0.258 0.266,-0.129 0.265,-0.258 0.797,-0.383 h 0.266 l 2.922,-1.414 h 0.265 l 0.266,-0.129 0.266,-0.258 0.265,-0.129 0.266,-0.257 0.27,-0.125 0.265,-0.258 1.063,-0.516 0.265,-0.258 0.532,-0.257 2.39,-2.317 0.531,-0.773 0.266,-0.516 0.531,-1.156 0.266,-0.516 0.266,-0.386 0.265,-0.512 1.594,-3.992 0.531,-1.543 0.266,-0.516 0.535,-0.773 0.266,-0.258 0.531,-0.258 0.531,0.258 0.266,0.258 0.531,0.773 0.266,0.641 0.531,2.449 2.125,10.039 0.531,1.672 0.797,2.187 0.531,1.032 0.266,0.257 0.265,0.383 0.266,0.129 h 0.531 l 0.266,0.129 h 0.531 l 0.266,0.125 h 1.597 l 0.266,-0.125 h 0.266 l 0.531,-0.258 h 0.266 l 0.796,-0.386 h 0.266 l 0.266,-0.129 h 0.265 l 0.266,-0.125 h 0.266 l 0.265,-0.129 h 0.266 l 0.265,-0.129 h 1.063 l 0.266,-0.129 h 1.593 l 0.266,-0.125 h 0.797 l 0.269,0.125 h 1.063 l 0.266,0.129 h 0.796 l 0.266,0.129 h 1.062 l 0.266,0.129 h 3.453 l 0.266,0.125 h 0.265 l 0.266,0.129 0.266,0.257 0.531,0.258 0.266,0.258 h 0.265 l 0.27,0.129 h 0.531 l 0.266,0.125 h 0.265 l 0.266,0.129 h 0.266 l 0.265,0.129 h 0.266 l 0.265,-0.129 0.266,-0.516 0.531,-1.156 0.266,-0.516 0.531,-0.773 0.266,-0.516 0.265,-0.383 0.266,-0.257 0.266,-0.387 0.265,-0.516 0.266,-0.64 0.531,-1.805 0.531,-1.027 0.266,-0.387 0.531,-0.516 h 0.532 l 0.265,0.129 0.266,0.258 0.265,0.387 0.266,0.511 0.266,0.645 0.535,2.445 0.797,3.992 0.265,0.77 0.532,0.773 0.265,0.258 0.266,0.129 0.265,0.258 0.532,0.254 h 0.265 l 0.266,0.129 h 0.266 l 1.062,-0.516 1.063,-1.027 0.265,-0.516 0.266,-1.672 0.531,-3.863 0.797,-9.781 0.531,-7.981 0.797,-15.058 0.27,-0.645 0.265,1.289 0.266,8.75 0.797,41.449 0.265,6.305 0.266,0.645 0.266,-2.832 0.531,-10.426 0.265,-2.574 0.532,-1.161 0.265,-0.511 0.532,-1.16 0.265,-0.516 2.922,-2.832 0.797,-0.387 0.266,-0.258 0.796,-0.386 0.27,-0.258 1.328,-0.641 h 0.266 l 0.531,-0.258 0.266,-0.257 0.265,-0.129 0.266,-0.258 0.265,-0.125 0.266,-0.258 0.266,-0.129 0.531,-0.515 0.266,-0.129 0.265,-0.254 0.266,-0.129 0.797,-0.774 1.593,-2.316 0.266,-0.516 1.594,-3.859 0.535,-1.676 0.531,-1.414 0.266,-0.516 0.531,-0.769 0.266,-0.129 0.531,-0.516 0.531,-0.257 0.266,0.129 0.266,0.257 0.265,0.383 0.531,1.418 0.266,1.285 0.266,0.903 0.531,2.832 1.062,5.531 0.532,2.191 0.265,1.028 0.266,1.418 0.266,0.64 0.531,0.774 0.797,0.773 0.535,0.258 h 0.265 l 0.266,0.125 h 1.063 l 0.265,-0.125 h 0.531 l 0.266,-0.129 h 0.531 l 0.266,-0.129 h 0.797 l 0.265,-0.129 h 0.532 l 0.265,-0.125 h 0.266 l 0.266,-0.129 h 0.265 l 0.266,-0.129 h 0.265 l 0.266,-0.129 h 0.266 l 0.265,-0.124 h 0.532 l 0.265,-0.129 h 0.797 l 0.266,-0.129 h 0.8 l 0.266,-0.125 h 0.797 l 0.266,-0.129 h 2.39 l 0.266,0.129 h 1.859 l 0.266,0.125 h 1.062 l 0.266,0.129 h 2.395 l 0.265,-0.129 h 0.797 l 0.266,-0.125 h 0.531 l 0.531,-0.258 h 0.266 l 0.531,-0.258 h 0.266 l 0.265,-0.129 h 0.532 l 0.265,-0.129 h 1.063 l 0.265,-0.125 h 0.266 l 0.265,-0.129 h 0.266 l 1.063,-0.515 h 0.265 l 0.266,-0.129 1.066,-1.028 0.266,-0.515 1.062,-3.477 0.797,-1.156 0.532,-0.258 h 0.265 l 0.531,0.258 0.532,0.516 0.265,0.386 0.266,0.641 0.531,2.188 0.531,1.804 0.532,2.317 0.265,0.773 0.266,0.512 0.266,0.258 0.531,0.257 h 0.265 l 0.266,0.129 h 0.266 l 0.265,0.129 h 0.535 l 0.266,0.125 h 0.266 l 0.531,-0.254 0.266,-0.258 0.265,-0.386 0.531,-1.032 0.266,-1.156 0.266,-1.929 0.531,-5.793 0.797,-11.071 0.531,-9.523 0.531,-10.684 0.266,-1.156 0.266,1.414 0.265,8.109 0.797,42.86 0.266,7.336 0.265,0.902 0.266,-2.574 0.531,-9.91 0.266,-2.446 1.062,-3.089 0.535,-0.774 0.266,-0.258 0.266,-0.129 1.328,-1.285 0.265,-0.129 0.266,-0.257 0.266,-0.125 0.265,-0.258 0.266,-0.129 0.266,-0.258 0.531,-0.258 0.265,-0.258 0.797,-0.382 0.266,-0.258 h 0.266 l 0.265,-0.129 h 0.266 l 0.531,-0.258 h 0.266 l 2.66,-1.289 0.531,-0.512 0.266,-0.129 0.531,-0.773 0.531,-1.027 1.063,-1.547 0.265,-0.516 0.532,-1.156 0.265,-0.516 0.797,-2.058 1.594,-4.633 0.265,-0.387 0.266,-0.258 0.266,-0.386 0.265,-0.129 h 0.532 l 0.265,0.129 0.797,1.156 0.27,0.773 0.531,2.317 0.797,4.504 0.531,3.089 1.063,3.993 0.531,1.929 0.531,0.516 0.266,0.129 0.265,0.254 0.266,0.129 0.266,0.257 1.593,0.774 h 1.594 l 0.266,-0.129 h 0.797 l 0.265,-0.129 h 0.27 l 0.265,-0.125 h 0.532 l 0.265,-0.129 h 0.266 l 0.265,-0.129 h 0.266 l 0.266,-0.125 h 0.531 l 0.266,-0.129 h 0.265 l 0.266,-0.129 h 0.265 l 0.266,-0.128 h 0.266 l 0.265,-0.126 h 0.266 l 0.266,-0.128 h 0.265 l 0.266,-0.129 h 0.265 l 0.266,-0.129 h 0.266 l 0.265,-0.125 h 0.266 l 0.266,-0.129 h 1.328"
           style="fill:none;stroke:#000000;stroke-width:0.47999999;stroke-linecap:square;stroke-linejoin:round;stroke-miterlimit:10;stroke-dasharray:none;stroke-opacity:1"
           id="path176"
           inkscape:connector-curvature="0" /></g></g></g><g
     inkscape:groupmode="layer"
     id="layer1"
     inkscape:label="Rhythm"
     style="display:inline"
     sodipodi:insensitive="true"><path
       style="fill:none;stroke:#007800;stroke-width:2;stroke-linecap:butt;stroke-linejoin:miter;stroke-miterlimit:4;stroke-dasharray:none;stroke-opacity:1"
       d="M 39.625285,17.137797 H 626.17721"
       id="path91"
       inkscape:connector-curvature="0"
       sodipodi:nodetypes="cc" /><path
       style="fill:none;stroke:#007800;stroke-width:2;stroke-linecap:butt;stroke-linejoin:miter;stroke-miterlimit:4;stroke-dasharray:none;stroke-opacity:1"
       d="M 625.67721,8.3116294 V 25.963964"
       id="path93"
       inkscape:connector-curvature="0" /><path
       inkscape:connector-curvature="0"
       id="path3798"
       d="M 529.67721,8.3116294 V 25.963964"
       style="fill:none;stroke:#007800;stroke-width:2;stroke-linecap:butt;stroke-linejoin:miter;stroke-miterlimit:4;stroke-dasharray:none;stroke-opacity:1" /><path
       style="fill:none;stroke:#007800;stroke-width:2;stroke-linecap:butt;stroke-linejoin:miter;stroke-miterlimit:4;stroke-dasharray:none;stroke-opacity:1"
       d="M 437.677,8.3116294 V 25.963964"
       id="path3800"
       inkscape:connector-curvature="0" /><path
       inkscape:connector-curvature="0"
       id="path3802"
       d="M 339.677,8.3116294 V 25.963964"
       style="fill:none;stroke:#007800;stroke-width:2;stroke-linecap:butt;stroke-linejoin:miter;stroke-miterlimit:4;stroke-dasharray:none;stroke-opacity:1" /><path
       style="fill:none;stroke:#007800;stroke-width:2;stroke-linecap:butt;stroke-linejoin:miter;stroke-miterlimit:4;stroke-dasharray:none;stroke-opacity:1"
       d="M 239.677,8.3116294 V 25.963964"
       id="path3804"
       inkscape:connector-curvature="0" /><path
       inkscape:connector-curvature="0"
       id="path3806"
       d="M 139.677,8.3116294 V 25.963964"
       style="fill:none;stroke:#007800;stroke-width:2;stroke-linecap:butt;stroke-linejoin:miter;stroke-miterlimit:4;stroke-dasharray:none;stroke-opacity:1" /><path
       style="fill:none;stroke:#007800;stroke-width:2;stroke-linecap:butt;stroke-linejoin:miter;stroke-miterlimit:4;stroke-dasharray:none;stroke-opacity:1"
       d="M 40.125285,8.3116294 V 25.963964"
       id="path3808"
       inkscape:connector-curvature="0" /></g><g
     inkscape:groupmode="layer"
     id="layer2"
     inkscape:label="Pwaves"
     style="display:inline"><ellipse
       ry="8.4885502"
       rx="7.7085056"
       cy="82.230629"
       cx="124.33257"
       id="ellipse4634"
       style="fill:none;stroke:#5a84ff;stroke-width:1.5;stroke-miterlimit:4;stroke-dasharray:none;stroke-opacity:1" /><text
       xml:space="preserve"
       style="font-style:normal;font-variant:normal;font-weight:normal;font-stretch:normal;font-size:16px;line-height:1.25;font-family:sans-serif;-inkscape-font-specification:sans-serif;fill:#5a84ff;fill-opacity:1;stroke-width:0.380473"
       x="113.73177"
       y="134.21082"
       id="text997"><tspan
         sodipodi:role="line"
         id="tspan995"
         x="113.73177"
         y="134.21082"
         style="font-size:16px;fill:#5a84ff;fill-opacity:1;stroke-width:0.380473">P</tspan></text><ellipse
       ry="43.194283"
       rx="8.1581173"
       cy="74.923096"
       cx="141.1394"
       id="ellipse1620"
       style="fill:none;stroke:#ff8d3e;stroke-width:1.5;stroke-miterlimit:4;stroke-dasharray:none;stroke-opacity:1" /><text
       xml:space="preserve"
       style="font-style:normal;font-variant:normal;font-weight:normal;font-stretch:normal;font-size:16px;line-height:1.25;font-family:sans-serif;-inkscape-font-specification:sans-serif;fill:#ff8d3e;fill-opacity:1;stroke-width:0.380473"
       x="125.73178"
       y="134.38681"
       id="text1624"><tspan
         sodipodi:role="line"
         id="tspan1622"
         x="125.73178"
         y="134.38681"
         style="font-size:16px;fill:#ff8d3e;fill-opacity:1;stroke-width:0.380473">QRS</tspan></text><ellipse
       ry="20.270414"
       rx="13.824071"
       cy="77.878838"
       cx="169.49239"
       id="ellipse1971"
       style="fill:none;stroke:#d069ed;stroke-width:1.5;stroke-miterlimit:4;stroke-dasharray:none;stroke-opacity:1" /><text
       xml:space="preserve"
       style="font-style:normal;font-variant:normal;font-weight:normal;font-stretch:normal;font-size:16px;line-height:1.25;font-family:sans-serif;-inkscape-font-specification:sans-serif;fill:#d069ed;fill-opacity:1;stroke-width:0.380473"
       x="163.73178"
       y="134.21082"
       id="text1975"><tspan
         sodipodi:role="line"
         id="tspan1973"
         x="163.73178"
         y="134.21082"
         style="font-size:16px;fill:#d069ed;fill-opacity:1;stroke-width:0.380473">T</tspan></text></g></svg>
